<svg width="2747" height="1796" viewBox="0 0 2747 1796" fill="none" xmlns="http://www.w3.org/2000/svg">
<path d="M14 184.866C45.923 214.503 76.0726 249.543 116.015 259.731C172.998 274.241 225.664 263.898 274.088 305.344C314.878 340.152 363.149 387.618 427.457 365.545C459.766 354.508 499.168 303.337 524.769 280.878C605.424 210.027 670.967 179.155 777.531 179C891.421 178.846 886.255 282.576 886.255 376.118C886.255 437.091 906.843 475.835 914.553 530.402C921.416 578.562 910.081 630.581 917.715 677.893C927.354 737.862 951.026 780.697 1012.48 783.63C1071.01 786.408 1101.77 770.123 1147.27 804.546C1281.67 906.423 1409.21 746.12 1536.2 714.09C1583.09 702.282 1639.84 709.537 1686.8 700.044C1757.12 685.765 1826.98 681.52 1893.68 712.778C1938.48 733.771 1953.59 771.59 1991.3 796.519C2031.17 822.914 2067.41 812.032 2113.06 816.431C2145.67 819.596 2184.38 834.877 2216.61 822.606C2259.1 806.475 2286.24 762.714 2309.61 726.594C2352.4 660.45 2376.92 589.444 2468.68 591.451C2518.34 592.532 2565.07 611.364 2614.11 614.914C2641.4 616.92 2669.47 615.531 2697 615.068" stroke="white" stroke-miterlimit="10" stroke-dasharray="2 2"/>
<path d="M1027 10.3336C1037.25 71.2722 1050.74 132.751 1067.86 194.924C1082.58 248.611 1118.27 288.8 1147.1 334.388C1171.93 373.651 1192.74 441.84 1233.83 465.29C1290.72 497.842 1377.52 481.026 1440.42 503.242C1524.76 532.94 1568.7 544.973 1651.03 518.361C1725.96 494.14 1810.52 504.708 1883.52 525.689C1946.43 543.739 2034.77 564.103 2089.97 517.204C2123.34 488.817 2136.99 449.477 2170.52 421.553C2232.81 369.717 2260.02 301.682 2290.09 227.244C2322.15 147.793 2353.68 74.8205 2394 1" stroke="white" stroke-miterlimit="10" stroke-dasharray="2 2"/>
<path d="M7 508C35.3742 527.59 84.7207 561.061 101.221 592.065C106.772 602.477 109.934 632.324 115.1 645.204C122.887 664.639 132.602 679.292 143.859 696.337C163.521 726.261 183.568 744.154 189.736 781.79C192.435 798.064 185.11 817.576 188.888 833.309C193.437 852.127 213.253 868.709 219.113 888.222C239.468 956.708 219.267 1030.36 171.848 1079.8C124.815 1128.85 57.0404 1144.58 7.07709 1187" stroke="white" stroke-miterlimit="10" stroke-dasharray="2 2"/>
<path d="M1 1265C100.946 1208.94 173.095 1137.24 293.677 1148.1C348.732 1153.03 387.232 1187.38 440.208 1203.24C486.331 1217.1 506.813 1219.33 540 1260.3" stroke="white" stroke-miterlimit="10" stroke-dasharray="2 2"/>
<path d="M7 1760.12C50.1069 1754.97 307.977 1627.55 344.606 1602.14C405.835 1559.72 462.745 1527.23 522.663 1486.74C649.979 1400.66 820.401 1489.89 941.548 1547.02C998.613 1573.96 1113.51 1620.08 1176.82 1599.06C1209.67 1588.13 1224.63 1564.11 1258.56 1555.49C1312.01 1541.94 1382.33 1551.25 1435.54 1555.49C1604.73 1568.88 1722.64 1678.36 1897.15 1682.83C1995.47 1685.37 2093.79 1687.6 2192.65 1687.52C2297.68 1687.45 2384.12 1703.92 2484.76 1721.86C2576.45 1738.18 2640.76 1790.53 2737 1795" stroke="white" stroke-miterlimit="10" stroke-dasharray="2 2"/>
<path d="M2746 732C2631.46 777.379 2509.97 801.921 2390.42 822.063C2313.03 835.106 2319.58 888.203 2268.55 933.813C2230.32 968.002 2169.65 987.295 2119.47 999.643C2110.69 1041.4 2143.29 1072.03 2161.87 1106.69C2188.77 1156.85 2219.22 1178.15 2272.48 1206.16C2287.51 1341.61 2420.17 1368.54 2488.62 1461.77C2547.05 1541.34 2648.26 1569.74 2722.57 1627" stroke="white" stroke-miterlimit="10" stroke-dasharray="2 2"/>
<path d="M608 1214C641.936 1138.82 682.12 1099.92 758.245 1076.81C842.7 1051.16 930.626 1072.11 1015.62 1056.24C1040.23 1051.62 1075.01 1040.84 1095.68 1026.97C1115.5 1013.64 1127.23 981.984 1151.06 971.662C1188.93 955.332 1208.9 970.045 1245 938" stroke="white" stroke-miterlimit="10" stroke-dasharray="2 2"/>
<path d="M2249.69 1612C2259.41 1562.44 2040.62 1455.53 1999.02 1413.21C1962.82 1376.45 1938.13 1331.51 1903.32 1294.2C1846.67 1233.62 1792.03 1175.35 1720.65 1130.72C1684.14 1107.9 1640.62 1077.46 1617 1041" stroke="white" stroke-miterlimit="10" stroke-dasharray="2 2"/>
<path d="M563 1138C543.679 1138 528 1153.9 528 1173.48C528 1193.07 543.679 1251 563 1251C582.321 1251 598 1193.07 598 1173.48C598 1153.9 582.321 1138 563 1138ZM563 1188.7C552.374 1188.7 543.828 1179.96 543.828 1169.26C543.828 1158.49 552.448 1149.83 563 1149.83C573.626 1149.83 582.172 1158.57 582.172 1169.26C582.172 1180.04 573.626 1188.7 563 1188.7Z" fill="#F2F2F2"/>
<path d="M1246 827C1226.68 827 1211 842.895 1211 862.482C1211 882.069 1226.68 940 1246 940C1265.32 940 1281 882.069 1281 862.482C1281 842.895 1265.32 827 1246 827ZM1246 877.699C1235.37 877.699 1226.83 868.961 1226.83 858.263C1226.83 847.491 1235.45 838.827 1246 838.827C1256.63 838.827 1265.17 847.566 1265.17 858.263C1265.17 869.036 1256.63 877.699 1246 877.699Z" fill="#F2F2F2"/>
<path d="M1417 372C1397.68 372 1382 387.895 1382 407.482C1382 427.069 1397.68 485 1417 485C1436.32 485 1452 427.069 1452 407.482C1452 387.895 1436.32 372 1417 372ZM1417 422.699C1406.37 422.699 1397.83 413.961 1397.83 403.263C1397.83 392.491 1406.45 383.827 1417 383.827C1427.63 383.827 1436.17 392.566 1436.17 403.263C1436.17 414.036 1427.63 422.699 1417 422.699Z" fill="#F2F2F2"/>
<path d="M1836 797C1816.68 797 1801 812.895 1801 832.482C1801 852.069 1816.68 910 1836 910C1855.32 910 1871 852.069 1871 832.482C1871 812.895 1855.32 797 1836 797ZM1836 847.699C1825.37 847.699 1816.83 838.961 1816.83 828.263C1816.83 817.491 1825.45 808.827 1836 808.827C1846.63 808.827 1855.17 817.566 1855.17 828.263C1855.17 839.036 1846.63 847.699 1836 847.699Z" fill="#F2F2F2"/>
<path d="M2584 897C2564.68 897 2549 912.895 2549 932.482C2549 952.069 2564.68 1010 2584 1010C2603.32 1010 2619 952.069 2619 932.482C2619 912.895 2603.32 897 2584 897ZM2584 947.699C2573.37 947.699 2564.83 938.961 2564.83 928.263C2564.83 917.491 2573.45 908.827 2584 908.827C2594.63 908.827 2603.17 917.566 2603.17 928.263C2603.17 939.036 2594.63 947.699 2584 947.699Z" fill="#F2F2F2"/>
</svg>
